<?xml version="1.0" encoding="utf-8"?>
<!-- Generator: Adobe Illustrator 17.0.0, SVG Export Plug-In . SVG Version: 6.00 Build 0)  -->
<!DOCTYPE svg PUBLIC "-//W3C//DTD SVG 1.1//EN" "http://www.w3.org/Graphics/SVG/1.1/DTD/svg11.dtd">
<svg version="1.1" id="Layer_1" xmlns="http://www.w3.org/2000/svg" xmlns:xlink="http://www.w3.org/1999/xlink" x="0px" y="0px"
	 width="470px" height="246px" viewBox="0 0 470 246" enable-background="new 0 0 470 246" xml:space="preserve">
<g>
	<path fill="#A0A0A0" d="M146.1385345,149.6532288c-2.2788086,0-4.4799652-1.2304993-5.6148987-3.3868561l-10.6683044-20.2494659
		c-1.6336823-3.1001434-0.4450073-6.9349976,2.6521454-8.5657043c3.1061096-1.6307068,6.9379883-0.447998,8.5657043,2.6521378
		l10.6683044,20.2494736c1.6336975,3.1001282,0.4450073,6.9349823-2.6521454,8.5656891
		C148.1455688,149.4142914,147.1330872,149.6532288,146.1385345,149.6532288z"/>
</g>
<path fill="#FFFFFF" d="M145.2563477,116.4762573l5.8250885-11.056572c1.4425507-2.7357635,0.3912506-6.1226196-2.3415375-7.5621872
	c-2.7268066-1.4276199-6.1166534-0.3882599-7.5562134,2.3415298l-5.1452484,9.7663345
	c-4.5986786-8.0975418-13.2005997-13.6370239-23.1591949-13.6370239c-14.7391052,0-26.7275009,11.9943695-26.7275009,26.730484
	c0,14.7420959,11.9883957,26.7364655,26.7275009,26.7364655c9.7327347,0,18.1815796-5.2845001,22.8564301-13.0818939
	C136.0324707,136.3512726,145.2563477,116.4762573,145.2563477,116.4762573z M112.8792419,138.6013336
	c-8.5686951,0-15.5395279-6.9708405-15.5395279-15.542511c0-8.5657043,6.9708328-15.5365372,15.5395279-15.5365372
	s15.542511,6.9708328,15.542511,15.5365372c0,2.0156174-0.414032,3.929306-1.1155167,5.6981506l-0.4379196,0.9534912
	C124.365509,134.948288,119.0593567,138.6013336,112.8792419,138.6013336z"/>
<g>
	<path fill="#FFFFFF" d="M172.3244324,141.892807v-30.4687042h1.5258789l0.6504517,2.1763306
		c1.4525299-1.4525223,3.6288605-2.1763306,6.529007-2.1763306h2.1763458c4.3526764,0,6.529007,2.1763306,6.529007,6.529007
		v8.7053452c0,4.3526688-2.1763306,6.5290146-6.529007,6.5290146h-2.1763458c-2.9001465,0-5.0764771-0.7238159-6.529007-2.1763458
		v10.8816833H172.3244324z M181.0297699,113.6004333c-2.9001465,0-5.0764771,0.7238159-6.529007,2.1763382v13.0580215
		c1.4525299,1.4525146,3.6288605,2.1763306,6.529007,2.1763306h2.1763458c2.9001465,0,4.3526764-1.4525146,4.3526764-4.3526688
		v-8.7053452c0-2.9050446-1.4525299-4.3526764-4.3526764-4.3526764H181.0297699z"/>
	<path fill="#FFFFFF" d="M194.0877991,133.1874695v-21.7633667h1.5258789l0.6504517,2.1763306
		c1.4525299-1.4525223,3.6288605-2.1763306,6.529007-2.1763306v2.1763306c-2.9001465,0-5.0764771,0.7238159-6.529007,2.1763382
		v17.4106979H194.0877991z"/>
	<path fill="#FFFFFF" d="M223.4707794,126.6584549c0,4.3526688-2.1763306,6.5290146-6.529007,6.5290146h-4.3526764
		c-4.3526611,0-6.529007-2.1763458-6.529007-6.5290146v-8.7053452c0-4.3526764,2.1763458-6.529007,6.529007-6.529007h4.3526764
		c4.3526764,0,6.529007,2.1763306,6.529007,6.529007V126.6584549z M208.2364349,126.6584549
		c0,2.9001541,1.4525146,4.3526688,4.3526611,4.3526688h4.3526764c2.9001465,0,4.3526764-1.4525146,4.3526764-4.3526688v-8.7053452
		c0-2.9050446-1.4525299-4.3526764-4.3526764-4.3526764h-4.3526764c-2.9001465,0-4.3526611,1.4476318-4.3526611,4.3526764
		V126.6584549z"/>
	<path fill="#FFFFFF" d="M221.2944489,141.892807v-2.1763306h2.1763306c2.9001617,0,4.3526764-1.4525299,4.3526764-4.3526764
		v-23.9396973h2.1763306V135.3638c0,4.3526764-2.1763306,6.529007-6.529007,6.529007H221.2944489z M229.9997864,102.71875v4.3526764
		h-2.1763306V102.71875H229.9997864z"/>
	<path fill="#FFFFFF" d="M236.5288086,123.3915024v3.2669525c0,2.9001541,1.4525146,4.3526688,4.3526611,4.3526688h9.7959595
		v2.1763458h-9.7959595c-4.3526611,0-6.529007-2.1763458-6.529007-6.5290146v-8.7053452
		c0-4.3526764,2.1763458-6.529007,6.529007-6.529007h4.3526764c4.3526764,0,6.529007,2.1763306,6.529007,6.529007v5.4383926
		H236.5288086z M236.5288086,121.2151718h13.0580139v-3.2620621c0-2.9050446-1.4525146-4.3526764-4.3526764-4.3526764h-4.3526764
		c-2.9001465,0-4.3526611,1.4476318-4.3526611,4.3526764V121.2151718z"/>
	<path fill="#FFFFFF" d="M261.5591125,111.4241028h7.6147461v2.1763306h-7.6147461v13.0580215
		c0,2.9001541,1.4476318,4.3526688,4.3526917,4.3526688h3.2620544v2.1763458h-3.2620544
		c-4.3526917,0-6.5290222-2.1763458-6.5290222-6.5290146v-13.0580215h-3.2669373v-2.1763306h3.2669373v-6.5290146
		l2.1763306-2.1763382V111.4241028z"/>
	<path fill="#FFFFFF" d="M290.9421082,126.6584549c0,4.3526688-2.1763306,6.5290146-6.5290222,6.5290146h-4.3526611
		c-4.3526611,0-6.5290222-2.1763458-6.5290222-6.5290146v-8.7053452c0-4.3526764,2.1763611-6.529007,6.5290222-6.529007h4.3526611
		c4.3526917,0,6.5290222,2.1763306,6.5290222,6.529007V126.6584549z M275.7077637,126.6584549
		c0,2.9001541,1.4525146,4.3526688,4.3526611,4.3526688h4.3526611c2.900177,0,4.3526917-1.4525146,4.3526917-4.3526688v-8.7053452
		c0-2.9050446-1.4525146-4.3526764-4.3526917-4.3526764h-4.3526611c-2.9001465,0-4.3526611,1.4476318-4.3526611,4.3526764
		V126.6584549z"/>
	<path fill="#FFFFFF" d="M310.5291443,120.1294479c0-4.3526764-2.1763306-6.5290146-6.5290222-6.5290146h-6.5289917v-2.1763306
		h6.5289917c5.8052063,0,8.7053528,2.9001465,8.7053528,8.7053452v13.0580215h-1.5209961l-0.6553345-2.1763458
		c-1.4525452,1.4525299-3.6288757,2.1763458-6.5290222,2.1763458h-2.1763306c-4.3526611,0-6.5290222-2.1763458-6.5290222-6.5290146
		c0-4.3526764,2.1763611-6.529007,6.5290222-6.529007h2.1763306c2.9001465,0,5.0764771,0.7238159,6.5290222,2.1763306V120.1294479z
		 M304.0001221,131.0111237c2.9001465,0,5.0764771-0.7238159,6.5290222-2.1763306v-4.3526764
		c-1.4525452-1.4525223-3.6288757-2.1763382-6.5290222-2.1763382h-2.1763306c-2.9001465,0-4.3526611,1.4525223-4.3526611,4.3526764
		s1.4525146,4.3526688,4.3526611,4.3526688H304.0001221z"/>
	<path fill="#FFFFFF" d="M319.2344666,102.71875v30.4687195h-2.1763306V102.71875H319.2344666z"/>
	<path fill="#FFFFFF" d="M323.5871582,141.892807v-30.4687042h1.5258789l0.6504517,2.1763306
		c1.4525146-1.4525223,3.6288452-2.1763306,6.5290222-2.1763306h2.1763306c4.3526611,0,6.5289917,2.1763306,6.5289917,6.529007
		v8.7053452c0,4.3526688-2.1763306,6.5290146-6.5289917,6.5290146h-2.1763306c-2.900177,0-5.0765076-0.7238159-6.5290222-2.1763458
		v10.8816833H323.5871582z M332.292511,113.6004333c-2.900177,0-5.0765076,0.7238159-6.5290222,2.1763382v13.0580215
		c1.4525146,1.4525146,3.6288452,2.1763306,6.5290222,2.1763306h2.1763306c2.9001465,0,4.3526611-1.4525146,4.3526611-4.3526688
		v-8.7053452c0-2.9050446-1.4525146-4.3526764-4.3526611-4.3526764H332.292511z"/>
	<path fill="#FFFFFF" d="M347.5268555,102.71875v10.8816833c1.4525146-1.4525223,3.6288452-2.1763306,6.5290222-2.1763306h2.1763306
		c4.3526611,0,6.5289917,2.1763306,6.5289917,6.529007v15.2343597h-2.1763306v-15.2343597
		c0-2.9050446-1.4525146-4.3526764-4.3526611-4.3526764h-2.1763306c-2.900177,0-5.0765076,0.7238159-6.5290222,2.1763382v17.4106979
		h-2.1763306V102.71875H347.5268555z"/>
	<path fill="#FFFFFF" d="M382.3482361,120.1294479c0-4.3526764-2.1763306-6.5290146-6.5289917-6.5290146h-6.5290222v-2.1763306
		h6.5290222c5.8051758,0,8.7053223,2.9001465,8.7053223,8.7053452v13.0580215h-1.5209656l-0.655365-2.1763458
		c-1.4525146,1.4525299-3.6288452,2.1763458-6.5289917,2.1763458h-2.1763611c-4.3526611,0-6.5289917-2.1763458-6.5289917-6.5290146
		c0-4.3526764,2.1763306-6.529007,6.5289917-6.529007h2.1763611c2.9001465,0,5.0764771,0.7238159,6.5289917,2.1763306V120.1294479z
		 M375.8192444,131.0111237c2.9001465,0,5.0764771-0.7238159,6.5289917-2.1763306v-4.3526764
		c-1.4525146-1.4525223-3.6288452-2.1763382-6.5289917-2.1763382h-2.1763611c-2.9001465,0-4.3526611,1.4525223-4.3526611,4.3526764
		s1.4525146,4.3526688,4.3526611,4.3526688H375.8192444z"/>
</g>
</svg>
