<?xml version="1.0" encoding="utf-8"?>
<!-- Generator: Adobe Illustrator 17.0.0, SVG Export Plug-In . SVG Version: 6.00 Build 0)  -->
<!DOCTYPE svg PUBLIC "-//W3C//DTD SVG 1.1//EN" "http://www.w3.org/Graphics/SVG/1.1/DTD/svg11.dtd">
<svg version="1.1" id="Layer_1" xmlns="http://www.w3.org/2000/svg" xmlns:xlink="http://www.w3.org/1999/xlink" x="0px" y="0px"
	 width="157px" height="22px" viewBox="0 0 157 22" enable-background="new 0 0 157 22" xml:space="preserve">
<g>
	<path fill="#FFFFFF" d="M0.4495307,21.8604736V4.9664035H1.29559l0.36066,1.2067189
		c0.8053834-0.8053832,2.0121028-1.2067189,3.6201582-1.2067189h1.2067194c2.4134388,0,3.6201582,1.2067189,3.6201582,3.6201577
		v4.8268776c0,2.4134388-1.2067194,3.6201572-3.6201582,3.6201572H5.2764082c-1.6080554,0-2.8147748-0.4013348-3.6201582-1.2067184
		v6.033596H0.4495307z M5.2764082,6.1731224c-1.6080554,0-2.8147748,0.4013362-3.6201582,1.2067194v7.2403164
		c0.8053834,0.8053837,2.0121028,1.2067194,3.6201582,1.2067194h1.2067194c1.6080551,0,2.4134388-0.8053837,2.4134388-2.4134388
		V8.5865612c0-1.6107669-0.8053837-2.4134388-2.4134388-2.4134388H5.2764082z"/>
	<path fill="#FFFFFF" d="M12.5167246,17.033596V4.9664035h0.8460588l0.3606606,1.2067189
		c0.8053827-0.8053832,2.0121021-1.2067189,3.6201572-1.2067189v1.2067189c-1.6080551,0-2.8147745,0.4013362-3.6201572,1.2067194
		v9.6537542H12.5167246z"/>
	<path fill="#FFFFFF" d="M28.8087921,13.4134388c0,2.4134388-1.2067204,3.6201572-3.6201591,3.6201572h-2.4134388
		c-2.4134388,0-3.6201572-1.2067184-3.6201572-3.6201572V8.5865612c0-2.4134388,1.2067184-3.6201577,3.6201572-3.6201577h2.4134388
		c2.4134388,0,3.6201591,1.2067189,3.6201591,3.6201577V13.4134388z M20.3617554,13.4134388
		c0,1.6080551,0.8053837,2.4134388,2.4134388,2.4134388h2.4134388c1.6080551,0,2.4134388-0.8053837,2.4134388-2.4134388V8.5865612
		c0-1.6107669-0.8053837-2.4134388-2.4134388-2.4134388h-2.4134388c-1.6080551,0-2.4134388,0.8026719-2.4134388,2.4134388
		V13.4134388z"/>
	<path fill="#FFFFFF" d="M27.6020718,21.8604736v-1.2067184h1.2067204c1.6080551,0,2.4134388-0.8053837,2.4134388-2.4134388
		V4.9664035h1.2067204v13.2739124c0,2.4134388-1.2067204,3.6201572-3.6201591,3.6201572H27.6020718z M32.4289513,0.1395258
		v2.4134386h-1.2067204V0.1395258H32.4289513z"/>
	<path fill="#FFFFFF" d="M36.0491066,11.6020041v1.8114347c0,1.6080551,0.8053856,2.4134388,2.4134407,2.4134388h5.431591v1.2067184
		h-5.431591c-2.4134407,0-3.6201591-1.2067184-3.6201591-3.6201572V8.5865612c0-2.4134388,1.2067184-3.6201577,3.6201591-3.6201577
		h2.4134369c2.4134407,0,3.6201591,1.2067189,3.6201591,3.6201577v3.0154428H36.0491066z M36.0491066,10.3952847h7.2403183
		V8.5865612c0-1.6107669-0.8053856-2.4134388-2.4134407-2.4134388h-2.4134369c-1.6080551,0-2.4134407,0.8026719-2.4134407,2.4134388
		V10.3952847z"/>
	<path fill="#FFFFFF" d="M49.9277344,4.9664035h4.2221642v1.2067189h-4.2221642v7.2403164
		c0,1.6080551,0.8026733,2.4134388,2.4134407,2.4134388h1.8087234v1.2067184h-1.8087234
		c-2.4134407,0-3.6201591-1.2067184-3.6201591-3.6201572V6.1731224h-1.8114357V4.9664035h1.8114357V1.3462452l1.2067184-1.2067194
		V4.9664035z"/>
	<path fill="#FFFFFF" d="M66.2198029,13.4134388c0,2.4134388-1.2067184,3.6201572-3.6201591,3.6201572h-2.4134369
		c-2.4134407,0-3.6201591-1.2067184-3.6201591-3.6201572V8.5865612c0-2.4134388,1.2067184-3.6201577,3.6201591-3.6201577h2.4134369
		c2.4134407,0,3.6201591,1.2067189,3.6201591,3.6201577V13.4134388z M57.7727661,13.4134388
		c0,1.6080551,0.8053856,2.4134388,2.4134407,2.4134388h2.4134369c1.6080589,0,2.4134407-0.8053837,2.4134407-2.4134388V8.5865612
		c0-1.6107669-0.8053818-2.4134388-2.4134407-2.4134388h-2.4134369c-1.6080551,0-2.4134407,0.8026719-2.4134407,2.4134388
		V13.4134388z"/>
	<path fill="#FFFFFF" d="M77.0802765,9.7932806c0-2.4134388-1.2067184-3.6201582-3.6201553-3.6201582h-3.620163V4.9664035h3.620163
		c3.2188187,0,4.8268738,1.6080551,4.8268738,4.8268771v7.2403154h-0.8433456l-0.3633728-1.2067184
		c-0.8053818,0.8053837-2.0121002,1.2067184-3.6201553,1.2067184h-1.2067184c-2.4134445,0-3.620163-1.2067184-3.620163-3.6201572
		s1.2067184-3.6201582,3.620163-3.6201582h1.2067184c1.6080551,0,2.8147736,0.4013357,3.6201553,1.2067194V9.7932806z
		 M73.4601212,15.8268776c1.6080551,0,2.8147736-0.4013357,3.6201553-1.2067194v-2.4134388
		C76.2748947,11.4013357,75.0681763,11,73.4601212,11h-1.2067184c-1.6080551,0-2.4134445,0.8053837-2.4134445,2.4134388
		s0.8053894,2.4134388,2.4134445,2.4134388H73.4601212z"/>
	<path fill="#FFFFFF" d="M81.9071579,0.1395258V17.033596h-1.2067261V0.1395258H81.9071579z"/>
	<path fill="#FFFFFF" d="M84.3205948,21.8604736V4.9664035h0.8460541l0.3606644,1.2067189
		c0.8053818-0.8053832,2.0121002-1.2067189,3.6201553-1.2067189h1.2067184c2.4134445,0,3.620163,1.2067189,3.620163,3.6201577
		v4.8268776c0,2.4134388-1.2067184,3.6201572-3.620163,3.6201572h-1.2067184c-1.6080551,0-2.8147736-0.4013348-3.6201553-1.2067184
		v6.033596H84.3205948z M89.1474686,6.1731224c-1.6080551,0-2.8147736,0.4013362-3.6201553,1.2067194v7.2403164
		c0.8053818,0.8053837,2.0121002,1.2067194,3.6201553,1.2067194h1.2067184c1.6080551,0,2.4134445-0.8053837,2.4134445-2.4134388
		V8.5865612c0-1.6107669-0.8053894-2.4134388-2.4134445-2.4134388H89.1474686z"/>
	<path fill="#FFFFFF" d="M97.5945053,0.1395258v6.0335965c0.8053818-0.8053832,2.0121002-1.2067189,3.6201553-1.2067189h1.2067261
		c2.4134369,0,3.6201553,1.2067189,3.6201553,3.6201577v8.4470348h-1.2067184V8.5865612
		c0-1.6107669-0.8053818-2.4134388-2.4134369-2.4134388h-1.2067261c-1.6080551,0-2.8147736,0.4013362-3.6201553,1.2067194v9.6537542
		h-1.2067184V0.1395258H97.5945053z"/>
	<path fill="#FFFFFF" d="M116.9020157,9.7932806c0-2.4134388-1.2067184-3.6201582-3.6201553-3.6201582h-3.620163V4.9664035h3.620163
		c3.2188187,0,4.8268738,1.6080551,4.8268738,4.8268771v7.2403154h-0.8433456l-0.3633728-1.2067184
		c-0.8053818,0.8053837-2.0121002,1.2067184-3.6201553,1.2067184h-1.2067184c-2.4134445,0-3.620163-1.2067184-3.620163-3.6201572
		s1.2067184-3.6201582,3.620163-3.6201582h1.2067184c1.6080551,0,2.8147736,0.4013357,3.6201553,1.2067194V9.7932806z
		 M113.2818604,15.8268776c1.6080551,0,2.8147736-0.4013357,3.6201553-1.2067194v-2.4134388
		C116.0966339,11.4013357,114.8899155,11,113.2818604,11h-1.2067184c-1.6080551,0-2.4134445,0.8053837-2.4134445,2.4134388
		s0.8053894,2.4134388,2.4134445,2.4134388H113.2818604z"/>
</g>
</svg>
