<?xml version="1.0" encoding="utf-8"?>
<!-- Generator: Adobe Illustrator 17.0.0, SVG Export Plug-In . SVG Version: 6.00 Build 0)  -->
<!DOCTYPE svg PUBLIC "-//W3C//DTD SVG 1.1//EN" "http://www.w3.org/Graphics/SVG/1.1/DTD/svg11.dtd">
<svg version="1.1" id="Layer_1" xmlns="http://www.w3.org/2000/svg" xmlns:xlink="http://www.w3.org/1999/xlink" x="0px" y="0px"
	 width="157px" height="22px" viewBox="0 0 157 22" enable-background="new 0 0 157 22" xml:space="preserve">
<g>
	<path fill="#A0A0A0" d="M25.021925,21.8967762c-0.9357471,0-1.8396091-0.5052795-2.3056431-1.3907452l-4.3807201-8.3150282
		c-0.6708431-1.2730093-0.1827335-2.8477135,1.0890484-3.5173311c1.2754612-0.6696177,2.8489399-0.1839609,3.5173302,1.0890484
		l4.380722,8.3150291c0.6708431,1.2730083,0.1827335,2.8477135-1.0890484,3.5173302
		C25.8460693,21.7986641,25.4303169,21.8967762,25.021925,21.8967762z"/>
</g>
<path fill="#FFFFFF" d="M24.6596756,8.2733297l2.3919506-4.5401525c0.5923538-1.1233876,0.1606598-2.5141313-0.9615021-3.1052587
	c-1.1197071-0.5862218-2.5116787-0.1594327-3.1028061,0.9615019l-2.1127892,4.0103455
	c-1.8883591-3.3250916-5.4205589-5.5997672-9.5098553-5.5997672c-6.0523109,0-10.9751024,4.9252443-10.9751024,10.9763288
	c0,6.0535374,4.9227915,10.9787807,10.9751024,10.9787807c3.9965487,0,7.4658966-2.1699715,9.3855286-5.371809
	C20.872076,16.4345989,24.6596756,8.2733297,24.6596756,8.2733297z M11.3646736,17.3585415
	c-3.5185571,0-6.3809876-2.8624306-6.3809876-6.3822136c0-3.5173311,2.8624306-6.3797617,6.3809876-6.3797617
	s6.3822136,2.8624306,6.3822136,6.3797617c0,0.8276701-0.1700096,1.6134892-0.4580612,2.3398275l-0.1798229,0.39153
	C16.0812759,15.8584948,13.9024134,17.3585415,11.3646736,17.3585415z"/>
</svg>
