<?xml version="1.0" encoding="utf-8"?>
<!-- Generator: Adobe Illustrator 17.0.0, SVG Export Plug-In . SVG Version: 6.00 Build 0)  -->
<!DOCTYPE svg PUBLIC "-//W3C//DTD SVG 1.1//EN" "http://www.w3.org/Graphics/SVG/1.1/DTD/svg11.dtd">
<svg version="1.1" id="Layer_1" xmlns="http://www.w3.org/2000/svg" xmlns:xlink="http://www.w3.org/1999/xlink" x="0px" y="0px"
	 width="157px" height="22px" viewBox="0 0 157 22" enable-background="new 0 0 157 22" xml:space="preserve">
<g>
	<path fill="#A0A0A0" d="M25.0184689,21.9192219c-0.9357471,0-1.8396091-0.5052795-2.3056431-1.3907433l-4.3807201-8.3150301
		c-0.6708431-1.2730083-0.1827335-2.8477135,1.0890484-3.5173302c1.2754612-0.6696177,2.8489399-0.1839609,3.5173302,1.0890474
		l4.3807201,8.3150291c0.670845,1.2730083,0.1827354,2.8477135-1.0890465,3.5173302
		C25.8426132,21.8211098,25.4268608,21.9192219,25.0184689,21.9192219z"/>
</g>
<path fill="#FFFFFF" d="M24.6562195,8.2957764l2.3919506-4.5401535c0.5923538-1.1233873,0.1606579-2.5141311-0.9615021-3.1052585
	c-1.119709-0.5862218-2.5116787-0.1594327-3.1028061,0.9615018l-2.1127892,4.0103459
	c-1.8883591-3.3250918-5.4205599-5.5997672-9.5098553-5.5997672c-6.0523109,0-10.9751024,4.9252443-10.9751024,10.9763288
	c0,6.0535374,4.9227915,10.9787827,10.9751024,10.9787827c3.9965487,0,7.4658966-2.1699715,9.3855286-5.3718109
	C20.8686199,16.4570446,24.6562195,8.2957764,24.6562195,8.2957764z M11.3612175,17.3809872
	c-3.5185575,0-6.3809876-2.8624296-6.3809876-6.3822136c0-3.5173306,2.8624301-6.3797612,6.3809876-6.3797612
	s6.3822136,2.8624306,6.3822136,6.3797612c0,0.8276701-0.1700096,1.6134901-0.4580612,2.3398285l-0.1798229,0.39153
	C16.0778198,15.8809404,13.8989573,17.3809872,11.3612175,17.3809872z"/>
<g>
	<path fill="#FFFFFF" d="M38.0447502,20.3751602V5.7196803h0.7339478L39.091568,6.7665
		c0.6986656-0.6986642,1.7454834-1.0468197,3.140461-1.0468197h1.0468178c2.0936432,0,3.140461,1.0468197,3.140461,3.1404595
		v4.1872797c0,2.0936403-1.0468178,3.14046-3.140461,3.14046H42.232029c-1.3949776,0-2.4417953-0.348156-3.140461-1.0468197
		v5.2341003H38.0447502z M42.232029,6.7665c-1.3949776,0-2.4417953,0.348156-3.140461,1.0468202v6.28092
		c0.6986656,0.6986637,1.7454834,1.0468197,3.140461,1.0468197h1.0468178c1.3949776,0,2.0936432-0.6986637,2.0936432-2.0936403
		V8.8601398c0-1.3973279-0.6986656-2.0936399-2.0936432-2.0936399H42.232029z"/>
	<path fill="#FFFFFF" d="M48.5129471,16.1878796V5.7196803h0.7339516l0.31287,1.0468197
		c0.6986656-0.6986642,1.7454834-1.0468197,3.140461-1.0468197V6.7665c-1.3949776,0-2.4417953,0.348156-3.140461,1.0468202
		v8.3745594H48.5129471z"/>
	<path fill="#FFFFFF" d="M62.6461945,13.0474195c0,2.0936403-1.0468216,3.14046-3.140461,3.14046h-2.0936394
		c-2.0936394,0-3.140461-1.0468197-3.140461-3.14046V8.8601398c0-2.0936399,1.0468216-3.1404595,3.140461-3.1404595h2.0936394
		c2.0936394,0,3.140461,1.0468197,3.140461,3.1404595V13.0474195z M55.3184547,13.0474195
		c0,1.3949766,0.6986656,2.0936403,2.0936394,2.0936403h2.0936394c1.3949776,0,2.0936394-0.6986637,2.0936394-2.0936403V8.8601398
		c0-1.3973279-0.6986618-2.0936399-2.0936394-2.0936399h-2.0936394c-1.3949738,0-2.0936394,0.696312-2.0936394,2.0936399V13.0474195
		z"/>
	<path fill="#FFFFFF" d="M61.5993729,20.3751602v-1.0468197h1.0468216c1.3949738,0,2.0936432-0.6986656,2.0936432-2.0936413
		V5.7196803h1.046814v11.5150185c0,2.0936413-1.046814,3.140461-3.1404572,3.140461H61.5993729z M65.7866516,1.5324003v2.0936399
		h-1.046814V1.5324003H65.7866516z"/>
	<path fill="#FFFFFF" d="M68.9271164,11.4760141v1.5714054c0,1.3949766,0.6986618,2.0936403,2.0936356,2.0936403h4.7118683
		v1.0468197H71.020752c-2.0936356,0-3.1404572-1.0468197-3.1404572-3.14046V8.8601398
		c0-2.0936399,1.0468216-3.1404595,3.1404572-3.1404595h2.0936432c2.0936356,0,3.1404572,1.0468197,3.1404572,3.1404595v2.6158743
		H68.9271164z M68.9271164,10.4291935h6.2809143V8.8601398c0-1.3973279-0.6986618-2.0936399-2.0936356-2.0936399H71.020752
		c-1.3949738,0-2.0936356,0.696312-2.0936356,2.0936399V10.4291935z"/>
	<path fill="#FFFFFF" d="M80.9667206,5.7196803h3.6626968V6.7665h-3.6626968v6.2809196
		c0,1.3949766,0.696312,2.0936403,2.0936432,2.0936403h1.5690536v1.0468197h-1.5690536
		c-2.0936432,0-3.1404648-1.0468197-3.1404648-3.14046V6.7665h-1.5714035V5.7196803h1.5714035v-3.14046l1.0468216-1.04682V5.7196803
		z"/>
	<path fill="#FFFFFF" d="M95.099968,13.0474195c0,2.0936403-1.0468216,3.14046-3.1404648,3.14046h-2.0936356
		c-2.0936432,0-3.1404648-1.0468197-3.1404648-3.14046V8.8601398c0-2.0936399,1.0468216-3.1404595,3.1404648-3.1404595h2.0936356
		c2.0936432,0,3.1404648,1.0468197,3.1404648,3.1404595V13.0474195z M87.7722244,13.0474195
		c0,1.3949766,0.6986694,2.0936403,2.0936432,2.0936403h2.0936356c1.3949814,0,2.0936432-0.6986637,2.0936432-2.0936403V8.8601398
		c0-1.3973279-0.6986618-2.0936399-2.0936432-2.0936399h-2.0936356c-1.3949738,0-2.0936432,0.696312-2.0936432,2.0936399V13.0474195
		z"/>
	<path fill="#FFFFFF" d="M104.521347,9.9069605c0-2.0936403-1.0468216-3.1404605-3.1404648-3.1404605h-3.1404572V5.7196803
		h3.1404572c2.792305,0,4.1872864,1.3949757,4.1872864,4.1872802v6.2809191h-0.7315979l-0.3152237-1.0468197
		c-0.6986618,0.6986637-1.7454834,1.0468197-3.1404648,1.0468197h-1.046814c-2.0936432,0-3.1404648-1.0468197-3.1404648-3.14046
		s1.0468216-3.1404591,3.1404648-3.1404591h1.046814c1.3949814,0,2.441803,0.348155,3.1404648,1.0468197V9.9069605z
		 M101.3808823,15.1410599c1.3949814,0,2.441803-0.348156,3.1404648-1.0468197v-2.0936403
		c-0.6986618-0.6986637-1.7454834-1.0468197-3.1404648-1.0468197h-1.046814c-1.3949814,0-2.0936432,0.6986637-2.0936432,2.0936394
		s0.6986618,2.0936403,2.0936432,2.0936403H101.3808823z"/>
	<path fill="#FFFFFF" d="M108.7086258,1.5324003v14.6554794h-1.0468216V1.5324003H108.7086258z"/>
	<path fill="#FFFFFF" d="M110.802269,20.3751602V5.7196803h0.7339478L111.8490829,6.7665
		c0.6986694-0.6986642,1.7454834-1.0468197,3.1404648-1.0468197h1.046814c2.0936432,0,3.1404648,1.0468197,3.1404648,3.1404595
		v4.1872797c0,2.0936403-1.0468216,3.14046-3.1404648,3.14046h-1.046814c-1.3949814,0-2.4417953-0.348156-3.1404648-1.0468197
		v5.2341003H110.802269z M114.9895477,6.7665c-1.3949814,0-2.4417953,0.348156-3.1404648,1.0468202v6.28092
		c0.6986694,0.6986637,1.7454834,1.0468197,3.1404648,1.0468197h1.046814c1.3949814,0,2.0936432-0.6986637,2.0936432-2.0936403
		V8.8601398c0-1.3973279-0.6986618-2.0936399-2.0936432-2.0936399H114.9895477z"/>
	<path fill="#FFFFFF" d="M122.3172836,1.5324003V6.7665c0.6986694-0.6986642,1.7454834-1.0468197,3.1404648-1.0468197h1.046814
		c2.0936432,0,3.1404572,1.0468197,3.1404572,3.1404595v7.3277397h-1.046814V8.8601398
		c0-1.3973279-0.6986618-2.0936399-2.0936432-2.0936399h-1.046814c-1.3949814,0-2.4417953,0.348156-3.1404648,1.0468202v8.3745594
		h-1.0468216V1.5324003H122.3172836z"/>
	<path fill="#FFFFFF" d="M139.0664063,9.9069605c0-2.0936403-1.046814-3.1404605-3.1404572-3.1404605h-3.1404572V5.7196803
		h3.1404572c2.7922974,0,4.1872711,1.3949757,4.1872711,4.1872802v6.2809191h-0.7315979l-0.3152161-1.0468197
		c-0.6986694,0.6986637-1.7454834,1.0468197-3.1404572,1.0468197h-1.0468292c-2.0936279,0-3.1404572-1.0468197-3.1404572-3.14046
		s1.0468292-3.1404591,3.1404572-3.1404591h1.0468292c1.3949738,0,2.4417877,0.348155,3.1404572,1.0468197V9.9069605z
		 M135.9259491,15.1410599c1.3949738,0,2.4417877-0.348156,3.1404572-1.0468197v-2.0936403
		c-0.6986694-0.6986637-1.7454834-1.0468197-3.1404572-1.0468197h-1.0468292c-1.3949738,0-2.0936279,0.6986637-2.0936279,2.0936394
		s0.6986542,2.0936403,2.0936279,2.0936403H135.9259491z"/>
</g>
</svg>
